<svg width="270" height="100" viewBox="0 0 270 100" fill="none" xmlns="http://www.w3.org/2000/svg">
<path d="M16.0136 58.528H7.81939L6.38839 63.1617H0L9.09706 38.3577H14.7188L23.884 63.1617H17.4616L16.0136 58.528ZM9.25038 53.9113H14.5826L11.908 45.3083L9.25038 53.9113Z" fill="#656980"/>
<path d="M45.4001 54.7631C45.3206 56.4894 44.855 58.0169 44.0032 59.3457C43.1514 60.6632 41.9532 61.6853 40.4087 62.4122C38.8755 63.139 37.1208 63.5024 35.1446 63.5024C31.8851 63.5024 29.3184 62.4405 27.4445 60.3168C25.5706 58.193 24.6336 55.1947 24.6336 51.3219V50.0953C24.6336 47.6649 25.0538 45.5411 25.8943 43.724C26.746 41.8955 27.9669 40.4872 29.5569 39.4991C31.1469 38.4997 32.9868 38 35.0765 38C38.0861 38 40.5052 38.795 42.3337 40.385C44.1622 41.9636 45.2014 44.1442 45.4512 46.9267H39.4887C39.4433 45.4162 39.0629 44.3316 38.3474 43.6729C37.6319 43.0142 36.5416 42.6848 35.0765 42.6848C33.5887 42.6848 32.4984 43.2413 31.8056 44.3543C31.1129 45.4673 30.7494 47.2447 30.7154 49.6865V51.4412C30.7154 54.0874 31.0447 55.9783 31.7034 57.1141C32.3735 58.2498 33.5206 58.8176 35.1446 58.8176C36.5189 58.8176 37.5694 58.4939 38.2962 57.8466C39.0231 57.1992 39.4092 56.1714 39.4547 54.7631H45.4001Z" fill="#656980"/>
<path d="M67.1888 42.9744H59.7442V63.1617H53.7647V42.9744H46.4563V38.3577H67.1888V42.9744Z" fill="#656980"/>
<path d="M76.0985 63.1617H70.136V38.3577H76.0985V63.1617Z" fill="#656980"/>
<path d="M89.8803 56.4156L94.8207 38.3577H101.499L93.1512 63.1617H86.6095L78.3301 38.3577H84.957L89.8803 56.4156Z" fill="#656980"/>
<path d="M118.705 52.6507H109.301V58.5621H120.408V63.1617H103.322V38.3577H120.442V42.9744H109.301V48.2044H118.705V52.6507Z" fill="#656980"/>
<path d="M123.454 63.1447V38.3407H129.978C132.647 38.3407 134.663 38.8859 136.026 39.9761C137.4 41.0551 138.087 42.628 138.087 44.695C138.087 46.1942 137.707 47.4378 136.946 48.4258C136.185 49.4139 135.112 50.0442 133.726 50.3168C135.294 50.5212 136.6 51.2027 137.644 52.3611C138.689 53.5082 139.212 54.8256 139.212 56.3134C139.212 58.4258 138.525 60.0953 137.15 61.3219C135.788 62.5371 133.885 63.1447 131.443 63.1447H123.454ZM124.374 50.896V62.2248H131.546C133.647 62.2248 135.294 61.708 136.486 60.6745C137.69 59.6297 138.292 58.1873 138.292 56.3474C138.292 54.7802 137.713 53.4911 136.554 52.4803C135.396 51.4582 133.846 50.9301 131.903 50.896H124.374ZM124.374 49.9761H130.319C132.579 49.9761 134.283 49.5445 135.43 48.6814C136.577 47.8069 137.15 46.4554 137.15 44.6269C137.15 41.1062 134.828 39.3174 130.183 39.2606H124.374V49.9761Z" fill="white"/>
<path d="M162.074 52.5996C162.074 54.7461 161.688 56.6484 160.915 58.3065C160.154 59.9533 159.064 61.231 157.644 62.1396C156.225 63.0368 154.589 63.4854 152.738 63.4854C149.944 63.4854 147.684 62.4917 145.958 60.5042C144.232 58.5167 143.368 55.8364 143.368 52.4633V48.8858C143.368 46.7507 143.749 44.854 144.51 43.1959C145.282 41.5377 146.378 40.2601 147.798 39.3629C149.229 38.4543 150.864 38 152.704 38C154.555 38 156.191 38.4543 157.61 39.3629C159.041 40.2601 160.143 41.5434 160.915 43.2129C161.688 44.8711 162.074 46.762 162.074 48.8858V52.5996ZM161.154 48.8517C161.154 45.8535 160.393 43.4514 158.871 41.6456C157.349 39.8285 155.293 38.9199 152.704 38.9199C150.149 38.9199 148.11 39.8228 146.588 41.6286C145.066 43.423 144.305 45.8705 144.305 48.971V52.5996C144.305 54.5757 144.646 56.3247 145.328 57.8466C146.02 59.3571 147.003 60.5212 148.275 61.3389C149.547 62.1566 151.035 62.5655 152.738 62.5655C155.328 62.5655 157.377 61.6626 158.888 59.8568C160.398 58.051 161.154 55.5865 161.154 52.4633V48.8517Z" fill="white"/>
<path d="M174.373 49.7717L182.38 38.3407H183.539L174.953 50.4872L183.862 63.1447H182.721L174.373 51.2027L165.992 63.1447H164.885L173.794 50.4872L165.208 38.3407H166.367L174.373 49.7717Z" fill="white"/>
</svg>
